<svg width="65" height="129" xmlns="http://www.w3.org/2000/svg" xmlns:xlink="http://www.w3.org/1999/xlink" xml:space="preserve" overflow="hidden"><defs><clipPath id="clip0"><rect x="766" y="298" width="65" height="129"/></clipPath></defs><g clip-path="url(#clip0)" transform="translate(-766 -298)"><path d="M780.978 379.522 819.353 379.522 823.695 418.837 822.194 422.218 779.948 423.369 771.394 418.567" fill="#FFFFFF"/><path d="M772.285 405.742C772.715 403.261 773.285 400.34 774.066 396.908L774.706 397.058C774.686 397.187 774.686 397.32 774.706 397.449L774.706 401.19C774.006 402.598 773.385 404.048 772.865 405.532 772.825 405.624 772.795 405.722 772.785 405.822Z" fill="#FFFFFF"/><path d="M786.4 304.703C786.46 304.791 786.521 304.885 786.56 304.983 786.951 305.704 786.781 306.596 786.15 307.124 786.05 307.196 785.95 307.263 785.85 307.324 785.17 307.688 784.32 307.549 783.789 306.983 784.59 306.15 785.47 305.387 786.4 304.703Z" fill="#102A4B"/><path d="M827.136 308.244C827.526 309.116 828.547 309.506 829.427 309.116 829.427 309.115 829.427 309.115 829.427 309.114L830.778 308.554C831.078 310.077 831.078 311.643 830.778 313.166 830.778 312.966 830.718 312.846 830.708 312.806 830.527 311.867 829.617 311.256 828.677 311.44 828.057 311.562 827.546 312.017 827.356 312.626 827.676 311.172 827.596 309.659 827.136 308.244Z" fill="#102A4B"/><path d="M828.667 311.435C829.597 311.27 830.487 311.879 830.668 312.806 830.668 312.806 830.668 312.966 830.738 313.166 830.548 314.078 830.257 314.968 829.877 315.817 829.337 317.062 828.617 318.222 827.736 319.258 827.736 317.319 827.576 315.382 827.266 313.466 827.236 313.264 827.236 313.058 827.266 312.856L827.326 312.626C827.516 312.01 828.037 311.551 828.667 311.435Z" fill="#102A4B"/><path d="M822.574 379.031C823.025 378.527 823.725 378.332 824.375 378.531 824.755 380.382 825.115 382.253 825.465 384.123 823.775 382.413 822.734 381.492 822.724 381.482 822.004 380.851 821.934 379.758 822.564 379.039 822.564 379.037 822.574 379.034 822.574 379.031Z" fill="#102A4B"/><path d="M785.05 340.617C785.36 340.63 785.67 340.675 785.98 340.747 786.36 340.848 786.73 340.993 787.081 341.177 786.881 341.687 786.671 342.177 786.45 342.817 786.18 342.643 785.88 342.511 785.57 342.427 785.33 342.376 785.09 342.349 784.85 342.347 784.51 342.352 784.17 342.409 783.849 342.517L783.849 342.517C784.28 342.375 784.64 342.07 784.85 341.667 785.03 341.349 785.1 340.979 785.05 340.617Z" fill="#102A4B"/><path d="M825.475 384.183C825.696 385.404 825.906 386.624 826.106 387.835 824.915 387.095 823.715 386.384 822.574 385.754L822.194 385.544C822.194 385.304 822.114 385.054 822.064 384.804 821.824 383.473 821.564 382.103 821.284 380.712L822.174 380.542C822.254 380.907 822.444 381.237 822.724 381.482 822.724 381.482 823.775 382.413 825.465 384.123 825.465 384.144 825.465 384.164 825.475 384.183Z" fill="#102A4B"/><path d="M778.887 351.471C779.178 351.157 779.328 350.745 779.328 350.32L779.328 350.32C779.338 351.127 779.488 351.924 779.768 352.681 779.728 353.767 779.778 354.853 779.898 355.932 779.008 355.122 778.367 354.084 778.027 352.931 778.027 352.591 778.027 352.251 778.107 351.931 778.407 351.854 778.677 351.694 778.887 351.471Z" fill="#102A4B"/><path d="M779.338 350.32C779.318 349.825 779.348 349.33 779.418 348.84 779.778 348.506 780.208 348.261 780.678 348.129 781.929 347.728 783.279 347.728 784.53 348.129 784.35 348.67 784.16 349.21 783.969 349.77 783.059 349.469 782.079 349.469 781.168 349.77 780.268 350.03 779.868 351.121 779.778 352.661 779.508 351.91 779.358 351.12 779.338 350.32Z" fill="#FFFFFF"/><path d="M783.789 306.983C784.32 307.549 785.17 307.688 785.85 307.324 785.95 307.263 786.05 307.196 786.15 307.124L786.15 307.124 785.43 307.794C782.699 310.454 780.878 313.904 780.218 317.658 779.678 317.388 779.148 317.087 778.627 316.777 779.378 313.088 781.168 309.691 783.789 306.983Z" fill="#102A4B"/><path d="M814.591 404.101C813.191 404.206 811.78 404.115 810.41 403.831 807.609 403.231 806.868 402.391 806.828 402.21 806.918 401.933 807.078 401.689 807.309 401.51 808.579 400.24 817.562 400.01 820.574 400.51 821.504 401.339 822.234 402.363 822.724 403.511 823.445 404.884 824.065 406.305 824.595 407.763 824.675 407.97 824.785 408.16 824.935 408.323 825.316 417.927 823.855 419.467 823.785 419.527 822.854 420.437 820.994 421.198 818.503 421.798 818.583 420.077 818.703 418.257 818.803 416.536 819.123 411.434 819.303 408.243 819.013 406.822 818.413 403.931 816.132 404.031 814.591 404.101Z" fill="#FFFFFF"/><path d="M786.45 342.817C785.94 344.198 785.36 345.819 784.71 347.649L784.53 348.149C783.279 347.748 781.929 347.748 780.678 348.149 780.208 348.281 779.778 348.526 779.418 348.86 779.458 348.523 779.518 348.188 779.598 347.859 780.258 345.188 781.989 343.117 783.829 342.547 784.15 342.439 784.49 342.382 784.83 342.377 785.07 342.379 785.31 342.406 785.55 342.457 785.87 342.53 786.17 342.651 786.45 342.817Z" fill="#FFFFFF"/><path d="M830.788 308.554 829.437 309.114C828.567 309.507 827.536 309.119 827.146 308.248 827.146 308.247 827.146 308.245 827.146 308.244L827.146 308.244C827.146 308.164 827.086 308.084 827.066 308.014L827.066 308.014C826.866 307.193 827.296 306.349 828.067 306.013 828.177 306.013 828.757 305.713 829.687 305.333 830.197 306.35 830.568 307.435 830.788 308.554Z" fill="#102A4B"/><path d="M829.487 304.983 829.637 305.273C828.707 305.653 828.127 305.903 828.017 305.953 827.246 306.289 826.816 307.133 827.016 307.954 826.846 307.498 826.646 307.054 826.416 306.623 824.945 303.939 822.334 302.065 819.323 301.521 817.272 301.243 815.192 301.875 813.641 303.252 813.161 303.654 812.711 304.095 812.301 304.573 811.95 304.252 811.58 303.942 811.2 303.652 811.5 303.331 811.67 302.904 811.67 302.462L811.67 300.391C813.941 298.506 816.912 297.674 819.833 298.1 823.935 298.786 827.496 301.325 829.487 304.983Z" fill="#102A4B"/><path d="M827.296 313.466C827.606 315.382 827.766 317.319 827.766 319.258 826.096 321.223 823.845 322.607 821.344 323.21 821.344 322.79 821.344 322.53 821.344 322.479 821.344 321.537 820.584 320.77 819.643 320.759 819.643 320.519 819.643 320.269 819.643 320.029 822.844 319.539 825.546 317.399 826.756 314.396 826.986 313.9 827.166 313.385 827.296 312.856 827.266 313.058 827.266 313.264 827.296 313.466Z" fill="#102A4B"/><path d="M827.136 308.244C827.596 309.661 827.666 311.173 827.336 312.626 827.306 312.7 827.286 312.777 827.276 312.856 827.146 313.385 826.966 313.9 826.736 314.396 825.526 317.399 822.824 319.539 819.623 320.029 819.423 314.097 816.782 308.512 812.32 304.593 812.731 304.115 813.181 303.674 813.661 303.272 815.212 301.896 817.282 301.263 819.343 301.541 822.354 302.085 824.965 303.959 826.436 306.643 826.666 307.074 826.866 307.518 827.036 307.974L827.036 307.974C827.056 308.054 827.076 308.131 827.116 308.204Z" fill="#FFFFFF"/><path d="M827.346 312.626 827.286 312.856C827.296 312.777 827.316 312.7 827.346 312.626Z" fill="#102A4B"/><path d="M827.056 308.004C827.056 308.074 827.056 308.154 827.136 308.234 827.096 308.161 827.076 308.084 827.056 308.004Z" fill="#102A4B"/><path d="M826.136 387.835C826.396 389.385 826.636 390.906 826.846 392.397 825.636 391.576 824.315 390.736 822.974 389.946 822.745 388.505 822.494 387.025 822.224 385.544L822.604 385.754C823.715 386.384 824.915 387.095 826.136 387.835Z" fill="#102A4B"/><path d="M824.375 378.531C823.465 378.252 822.494 378.767 822.214 379.682 822.134 379.957 822.114 380.25 822.174 380.532L821.284 380.702C820.474 376.701 819.523 372.429 818.433 368.217 818.773 367.122 819.023 366.001 819.173 364.866 819.333 363.766 819.533 362.565 819.753 361.285 819.803 361.004 819.843 360.724 819.893 360.444 821.554 366.086 823.075 372.189 824.375 378.531Z" fill="#102A4B"/><path d="M822.945 389.946C823.275 392.036 823.565 394.087 823.825 396.068 821.464 394.416 818.983 392.926 816.422 391.606 813.611 390.176 812.05 387.775 811.95 386.144 811.9 385.816 811.99 385.482 812.2 385.224 813.641 385.094 818.403 387.275 822.945 389.946Z" fill="#FFFFFF"/><path d="M822.024 348.52C822.084 350.034 821.824 351.545 821.254 352.951 821.114 353.295 820.944 353.63 820.754 353.952 820.934 352.372 820.774 350.771 820.284 349.26 820.304 348.779 820.294 348.297 820.234 347.819L821.154 349.29C821.484 349.078 821.774 348.819 822.024 348.52Z" fill="#102A4B"/><path d="M821.574 345.638C821.834 346.578 821.984 347.545 822.024 348.52 821.774 348.83 821.484 349.099 821.154 349.32L820.234 347.849C820.174 347.257 820.063 346.671 819.903 346.099 819.903 345.979 819.833 345.859 819.793 345.739 820.073 345.338 820.453 344.738 820.944 343.888 821.194 344.455 821.404 345.04 821.574 345.638Z" fill="#102A4B"/><path d="M821.354 322.479C821.354 322.53 821.354 322.79 821.354 323.21 820.734 323.369 820.103 323.48 819.473 323.54 819.593 322.622 819.663 321.695 819.663 320.769L819.663 320.769C820.594 320.785 821.344 321.545 821.354 322.479Z" fill="#102A4B"/><path d="M820.284 349.29C820.774 350.802 820.934 352.402 820.754 353.982 820.254 354.884 819.573 355.676 818.753 356.313 818.883 355.312 818.983 354.312 819.023 353.451 819.803 352.199 820.234 350.763 820.284 349.29Z" fill="#102A4B"/><path d="M819.213 346.459 819.323 346.379 820.234 347.849C820.294 348.328 820.304 348.809 820.284 349.29 819.973 348.406 819.283 347.701 818.413 347.359 818.363 347.093 818.303 346.829 818.233 346.569 817.472 343.818 815.462 341.777 813.411 341.427L813.641 341.427C814.061 341.429 814.471 341.276 814.792 340.997 814.792 340.997 815.091 340.727 815.482 340.306 817.572 341.482 819.123 343.433 819.793 345.739 819.623 345.994 819.423 346.234 819.213 346.459Z" fill="#102A4B"/><path d="M820.234 347.849 819.323 346.379 819.213 346.459C819.423 346.234 819.623 345.994 819.793 345.739 819.793 345.859 819.873 345.979 819.903 346.099 820.063 346.671 820.174 347.257 820.234 347.849Z" fill="#102A4B"/><path d="M820.754 353.982C820.574 356.153 820.294 358.312 819.893 360.454 819.633 359.584 819.373 358.734 819.113 357.893 818.983 357.483 818.853 357.083 818.733 356.683 818.733 356.563 818.733 356.443 818.783 356.313 819.583 355.674 820.254 354.882 820.754 353.982Z" fill="#102A4B"/><path d="M820.284 349.29C820.244 350.761 819.823 352.197 819.053 353.451 819.213 352.157 819.033 350.841 818.523 349.64 818.593 348.879 818.563 348.11 818.413 347.359 819.283 347.701 819.973 348.406 820.284 349.29Z" fill="#102A4B"/><path d="M820.944 343.888C820.453 344.758 820.073 345.338 819.793 345.739 819.123 343.433 817.572 341.482 815.482 340.306 815.882 339.882 816.262 339.438 816.622 338.976 818.543 340.123 820.053 341.84 820.944 343.888Z" fill="#102A4B"/><path d="M819.893 360.454C819.893 360.734 819.803 361.014 819.753 361.295 819.533 362.575 819.333 363.776 819.173 364.876 819.023 366.011 818.773 367.132 818.433 368.227 818.123 367.007 817.803 365.786 817.432 364.576 817.773 362.215 818.333 359.334 818.703 356.683 818.823 357.083 818.953 357.483 819.083 357.893 819.373 358.734 819.633 359.584 819.893 360.454Z" fill="#102A4B"/><path d="M819.653 320.759 819.653 320.759C819.653 321.685 819.583 322.612 819.463 323.53 819.083 323.571 818.693 323.591 818.313 323.59L817.853 323.59C817.853 322.91 817.853 322.51 817.853 322.49 817.853 321.532 818.623 320.755 819.583 320.749L819.583 320.749Z" fill="#102A4B"/><path d="M819.653 320.759 819.653 320.759C818.693 320.764 817.923 321.542 817.923 322.5 817.923 322.5 817.923 322.92 817.923 323.6L817.783 323.6C817.913 322.673 817.983 321.736 817.983 320.799 817.983 320.579 817.983 320.369 817.983 320.159L818.143 320.159C818.673 320.177 819.193 320.144 819.713 320.059 819.633 320.269 819.653 320.519 819.653 320.759Z" fill="#102A4B"/><path d="M818.523 349.64C819.033 350.841 819.213 352.157 819.053 353.451 818.773 353.89 818.433 354.29 818.053 354.642 817.833 354.012 817.622 353.381 817.402 352.771 817.663 352.422 817.883 352.038 818.043 351.631 818.303 350.996 818.463 350.324 818.523 349.64Z" fill="#102A4B"/><path d="M819.053 353.451C819.053 354.332 818.913 355.302 818.783 356.313L818.643 356.423C818.453 355.822 818.253 355.222 818.063 354.642 818.443 354.289 818.773 353.889 819.053 353.451Z" fill="#102A4B"/><path d="M818.783 356.313C818.783 356.443 818.783 356.563 818.733 356.683L818.643 356.423Z" fill="#102A4B"/><path d="M818.643 356.423 818.733 356.683C818.363 359.334 817.803 362.215 817.462 364.576 817.102 363.265 816.732 361.965 816.342 360.674 816.492 359.784 816.692 358.614 816.872 357.383 817.502 357.147 818.103 356.824 818.643 356.423Z" fill="#102A4B"/><path d="M819.633 320.069C819.113 320.154 818.593 320.187 818.063 320.169L817.903 320.169C817.733 314.745 815.352 309.629 811.3 306.013 811.36 305.946 811.41 305.872 811.46 305.793 811.72 305.387 812.01 305 812.33 304.633 816.792 308.552 819.433 314.137 819.633 320.069Z" fill="#102A4B"/><path d="M819.463 323.54C819.083 326.575 818.063 329.495 816.462 332.103 817.292 329.336 817.773 326.476 817.893 323.59L818.353 323.59C818.723 323.592 819.093 323.576 819.463 323.54Z" fill="#102A4B"/><path d="M818.413 347.359C818.563 348.11 818.593 348.879 818.523 349.64 818.343 349.302 818.033 349.047 817.663 348.93 817.092 348.757 816.492 348.686 815.892 348.72 815.672 348.159 815.442 347.609 815.222 347.069 816.202 346.913 817.202 346.982 818.153 347.269Z" fill="#FFFFFF"/><path d="M818.503 421.828C818.443 423.099 818.403 424.309 818.383 425.399 817.292 425.639 816.122 425.84 814.911 426.02 814.911 424.939 814.911 423.759 815.001 422.508 816.272 422.318 817.443 422.108 818.503 421.828Z" fill="#102A4B"/><path d="M818.063 354.642C818.253 355.222 818.453 355.822 818.643 356.423 818.103 356.838 817.502 357.175 816.872 357.423 816.972 356.743 817.062 356.052 817.142 355.372 817.472 355.165 817.783 354.92 818.063 354.642Z" fill="#102A4B"/><path d="M818.233 346.569C818.303 346.829 818.363 347.093 818.413 347.359L818.153 347.269C817.202 346.982 816.202 346.913 815.222 347.069 814.341 344.968 813.451 343.07 812.551 341.377L812.771 341.377C812.981 341.377 813.201 341.397 813.411 341.437 815.462 341.777 817.472 343.818 818.233 346.569Z" fill="#FFFFFF"/><path d="M818.523 349.64C818.473 350.327 818.313 351.002 818.053 351.641 817.893 352.048 817.673 352.432 817.412 352.781L817.352 352.621C817.422 351.942 817.322 351.256 817.072 350.62 816.912 350.574 816.742 350.541 816.572 350.52 816.342 349.92 816.122 349.34 815.892 348.77 816.492 348.736 817.092 348.807 817.663 348.98 818.023 349.085 818.333 349.32 818.523 349.64Z" fill="#FFFFFF"/><path d="M817.462 364.576C817.803 365.786 818.123 367.007 818.463 368.227 818.033 369.676 817.422 371.062 816.632 372.349 816.872 371.178 816.802 369.966 816.442 368.827 816.922 367.469 817.252 366.064 817.443 364.636Z" fill="#102A4B"/><path d="M817.903 320.129C817.903 320.339 817.903 320.549 817.903 320.769 817.903 321.706 817.833 322.643 817.703 323.57 816.752 323.43 816.102 322.55 816.242 321.603 816.372 320.78 817.062 320.16 817.893 320.129Z" fill="#102A4B"/><path d="M817.773 323.58 817.853 323.58C817.733 326.466 817.252 329.326 816.422 332.093 814.942 334.472 813.021 336.544 810.76 338.196L810.7 338.196 810.31 337.605C810.12 337.315 809.93 337.055 809.739 336.785 814.091 333.636 816.982 328.857 817.743 323.54Z" fill="#102A4B"/><path d="M817.412 352.771C817.633 353.381 817.843 354.012 818.063 354.642 817.783 354.906 817.472 355.137 817.142 355.332 817.242 354.452 817.322 353.602 817.342 352.861Z" fill="#102A4B"/><path d="M817.713 323.57C816.952 328.887 814.061 333.666 809.709 336.815 809.339 336.325 808.979 335.815 808.629 335.445 813.081 332.241 815.842 327.188 816.132 321.709L816.132 321.709C816.052 322.657 816.752 323.489 817.703 323.569 817.703 323.569 817.713 323.57 817.713 323.57Z" fill="#102A4B"/><path d="M817.462 364.576 817.462 364.636C817.272 366.064 816.942 367.469 816.462 368.827 816.302 368.282 816.112 367.747 815.882 367.227 815.752 366.907 815.592 366.587 815.432 366.227 815.582 365.616 815.702 364.986 815.792 364.356 815.952 363.205 816.162 361.975 816.382 360.674 816.382 360.674 816.382 360.674 816.382 360.674 816.732 361.965 817.132 363.265 817.462 364.576Z" fill="#102A4B"/><path d="M817.352 352.611 817.412 352.771 817.342 352.861C817.342 352.781 817.352 352.691 817.352 352.611Z" fill="#FFFFFF"/><path d="M817.072 350.57C817.322 351.206 817.422 351.892 817.352 352.571 817.092 351.831 816.832 351.121 816.572 350.43 816.742 350.464 816.912 350.511 817.072 350.57Z" fill="#FFFFFF"/><path d="M817.352 352.611C817.352 352.691 817.352 352.781 817.352 352.861 816.872 353.508 816.202 353.982 815.432 354.212 815.062 354.313 814.671 354.35 814.291 354.322 814.051 353.632 813.811 352.961 813.561 352.321 813.901 351.737 814.371 351.235 814.932 350.85 815.302 350.596 815.752 350.463 816.202 350.47L816.582 350.47C816.832 351.161 817.132 351.871 817.352 352.611Z" fill="#FFFFFF"/><path d="M817.342 352.861C817.342 353.602 817.242 354.452 817.142 355.332 816.752 355.572 816.322 355.757 815.882 355.882 815.552 355.972 815.222 356.029 814.881 356.052 814.691 355.472 814.491 354.892 814.291 354.322 814.671 354.35 815.062 354.313 815.432 354.212 816.202 353.98 816.872 353.507 817.342 352.861Z" fill="#102A4B"/><path d="M809.94 307.064 809.94 307.064C809.599 306.763 809.269 306.483 808.939 306.223L808.939 306.223 809.129 306.353C809.859 306.788 810.8 306.622 811.34 305.963 815.392 309.578 817.773 314.694 817.943 320.119 817.052 320.126 816.312 320.81 816.232 321.699L816.232 321.699C816.232 321.389 816.232 321.079 816.232 320.759 816.232 319.963 816.172 319.167 816.072 318.378 815.482 313.983 813.301 309.959 809.94 307.064Z" fill="#102A4B"/><path d="M817.132 355.332C817.052 356.013 816.962 356.703 816.862 357.383L816.342 357.553C816.032 357.633 815.732 357.693 815.422 357.743 815.232 357.173 815.052 356.613 814.861 356.052 815.202 356.029 815.532 355.972 815.862 355.882 816.312 355.758 816.732 355.573 817.132 355.332Z" fill="#102A4B"/><path d="M818.723 396.868C817.152 396.788 815.192 396.778 813.281 396.868 807.399 397.168 805.658 398.259 804.858 399.049 803.647 400.052 803.117 401.665 803.507 403.191 804.067 405.102 806.148 406.452 809.679 407.192 811.34 407.551 813.051 407.669 814.751 407.542L815.622 407.542 815.622 407.542C815.712 410.477 815.622 413.414 815.352 416.336 815.222 418.427 815.091 420.537 815.001 422.498 805.738 423.682 796.354 423.648 787.101 422.398L785.69 422.208C785.62 420.027 785.47 417.626 785.32 415.255 785.09 411.614 784.83 407.492 785.05 406.452L785.05 406.452 785.91 406.452C787.611 406.568 789.312 406.451 790.982 406.102 794.524 405.342 796.604 403.981 797.155 402.1 797.545 400.575 797.015 398.961 795.804 397.959 793.513 395.668 786 395.568 781.929 395.788 783.079 395.078 784.4 394.317 785.82 393.587 789.432 391.746 791.993 388.395 792.173 385.244 792.333 383.646 791.612 382.088 790.292 381.172 789.682 380.762 788.241 379.802 782.289 382.503 782.609 380.075 783.059 377.667 783.649 375.29 783.729 375.35 783.799 375.42 783.889 375.48 784.209 375.705 784.55 375.912 784.89 376.1 785.74 376.721 786.771 377.069 787.821 377.101L788.171 377.101 788.351 377.101C789.822 377.074 791.252 376.587 792.433 375.71 795.194 373.709 797.495 369.708 799.185 365.376 800.886 369.728 803.187 373.749 805.948 375.71 807.128 376.589 808.559 377.076 810.04 377.101 811.64 377.062 813.191 376.507 814.451 375.52 814.701 375.333 814.942 375.129 815.172 374.91 815.832 377.543 816.312 380.216 816.622 382.913 812.14 381.142 810.92 381.913 810.38 382.313 809.059 383.233 808.349 384.796 808.509 386.394 808.689 389.536 811.24 392.897 814.851 394.738 816.262 395.408 817.572 396.168 818.723 396.868Z" fill="#FFFFFF"/><path d="M816.412 368.827C816.772 369.966 816.842 371.178 816.602 372.349 816.492 372.529 816.382 372.709 816.262 372.879 815.902 373.403 815.492 373.892 815.042 374.34 814.951 373.939 814.871 373.529 814.792 373.119L814.461 373.009C814.711 372.619 814.881 372.179 814.951 371.719 815.542 370.811 816.032 369.842 816.412 368.827Z" fill="#102A4B"/><path d="M816.352 357.553 816.872 357.383C816.692 358.614 816.492 359.784 816.342 360.674 816.042 359.674 815.742 358.674 815.432 357.743 815.742 357.693 816.042 357.633 816.352 357.553Z" fill="#FFFFFF"/><path d="M816.262 372.879C816.382 372.709 816.492 372.529 816.602 372.349 816.382 373.315 815.882 374.196 815.162 374.88L815.042 374.34C815.492 373.892 815.902 373.403 816.262 372.879Z" fill="#102A4B"/><path d="M816.572 350.47 816.192 350.47C815.742 350.463 815.292 350.596 814.922 350.85 814.361 351.235 813.891 351.737 813.551 352.321 813.321 351.681 813.071 351.041 812.831 350.42 813.581 349.466 814.681 348.862 815.892 348.75 816.132 349.29 816.342 349.87 816.572 350.47Z" fill="#FFFFFF"/><path d="M816.342 360.674C816.342 360.674 816.342 360.674 816.342 360.674 816.122 361.975 815.912 363.205 815.752 364.356 815.662 364.986 815.542 365.616 815.392 366.227 814.151 363.93 812.751 361.729 811.18 359.644 811.34 358.834 811.51 358.003 811.71 357.193 812.601 357.564 813.561 357.757 814.521 357.763 814.831 357.763 815.142 357.743 815.442 357.703 815.742 358.704 816.042 359.684 816.342 360.674Z" fill="#FFFFFF"/><path d="M816.182 320.769C816.182 321.089 816.182 321.399 816.182 321.709 815.892 327.188 813.131 332.241 808.679 335.445 805.068 331.213 801.856 330.933 799.556 331.703 796.534 330.949 793.323 331.668 790.912 333.644 790.622 333.874 790.142 334.264 789.081 336.475 783.449 333.25 779.978 327.258 779.968 320.769 779.968 319.726 780.058 318.685 780.238 317.658 790.832 323.1 804.327 321.779 816.042 318.388 816.142 319.178 816.182 319.973 816.182 320.769Z" fill="#FFFFFF"/><path d="M815.832 367.227C816.062 367.747 816.252 368.282 816.412 368.827 816.032 369.842 815.542 370.811 814.951 371.719 815.081 370.702 814.951 369.668 814.571 368.717 814.901 367.913 815.172 367.083 815.382 366.236 815.542 366.587 815.702 366.907 815.832 367.227Z" fill="#102A4B"/><path d="M816.622 338.976C816.262 339.438 815.882 339.882 815.482 340.306 814.391 339.721 813.131 339.51 811.91 339.706 811.91 339.209 812.12 338.734 812.49 338.406 812.49 338.406 812.691 338.216 812.991 337.905 814.271 337.956 815.522 338.324 816.622 338.976Z" fill="#102A4B"/><path d="M815.222 347.079C815.442 347.619 815.672 348.169 815.892 348.73 814.681 348.842 813.581 349.446 812.831 350.4 812.591 349.8 812.36 349.21 812.12 348.64 812.411 348.375 812.711 348.133 813.041 347.919 813.701 347.492 814.441 347.206 815.222 347.079Z" fill="#FFFFFF"/><path d="M815.042 374.34 815.162 374.88C814.932 375.099 814.691 375.303 814.441 375.49 813.181 376.477 811.63 377.032 810.03 377.071 808.559 377.046 807.118 376.559 805.938 375.68 803.177 373.679 800.876 369.678 799.175 365.346 799.516 364.476 799.826 363.605 800.106 362.745 801.856 367.957 804.507 373.119 807.809 374.75 808.459 375.517 809.379 376.01 810.38 376.13 810.59 376.162 810.81 376.178 811.02 376.18 812.551 376.128 814.001 375.465 815.042 374.34Z" fill="#102A4B"/><path d="M814.871 356.083C815.062 356.643 815.242 357.203 815.432 357.773 815.122 357.813 814.821 357.833 814.511 357.833 813.551 357.827 812.591 357.634 811.7 357.263 811.83 356.693 811.99 356.133 812.15 355.582 813.001 355.972 813.941 356.145 814.871 356.083Z" fill="#102A4B"/><path d="M814.571 368.747C814.951 369.698 815.081 370.732 814.951 371.749 813.701 373.639 812.14 374.7 810.62 374.49 809.92 374.41 809.299 374.016 808.929 373.419 810.13 373.845 811.46 373.58 812.401 372.729 812.951 372.382 813.291 371.772 813.281 371.118L813.421 370.928C813.881 370.247 814.271 369.516 814.571 368.747Z" fill="#102A4B"/><path d="M814.792 373.089C814.871 373.499 814.951 373.909 815.042 374.31 814.011 375.445 812.57 376.122 811.04 376.19 810.83 376.188 810.61 376.172 810.4 376.14 809.399 376.02 808.479 375.527 807.829 374.76 809.669 375.693 811.89 375.416 813.441 374.06 813.841 373.763 814.181 373.397 814.441 372.979Z" fill="#102A4B"/><path d="M815.001 422.508C815.001 423.759 814.911 424.939 814.911 426.02 810.7 426.574 806.448 426.838 802.197 426.81 796.995 426.805 791.803 426.471 786.651 425.81L785.75 425.69C785.75 424.629 785.75 423.439 785.69 422.178L787.101 422.368C796.354 423.631 805.738 423.678 815.001 422.508Z" fill="#102A4B"/><path d="M815.482 340.306C815.091 340.727 814.821 340.967 814.792 340.997 814.471 341.276 814.061 341.429 813.641 341.427L813.411 341.427C813.001 341.374 812.621 341.171 812.35 340.857 812.07 340.542 811.91 340.137 811.91 339.716 813.131 339.517 814.391 339.724 815.482 340.306Z" fill="#102A4B"/><path d="M815.382 366.266C815.172 367.113 814.901 367.943 814.571 368.747 813.591 366.382 812.311 364.15 810.77 362.105 810.88 361.345 811.02 360.524 811.17 359.684 812.741 361.769 814.141 363.97 815.382 366.266Z" fill="#102A4B"/><path d="M814.871 356.083C813.941 356.145 813.001 355.972 812.15 355.582 812.33 355.012 812.531 354.452 812.741 353.932 813.221 354.168 813.741 354.311 814.281 354.352 814.481 354.892 814.681 355.472 814.871 356.083Z" fill="#102A4B"/><path d="M814.951 371.719C814.881 372.179 814.711 372.619 814.461 373.009 814.201 373.427 813.861 373.793 813.461 374.089 811.91 375.446 809.689 375.723 807.849 374.79 807.148 373.867 806.718 372.764 806.618 371.609 807.038 372.082 807.509 372.505 808.019 372.869 808.329 373.086 808.669 373.261 809.019 373.389 809.389 373.985 810.01 374.38 810.71 374.46 812.13 374.67 813.701 373.609 814.951 371.719Z" fill="#102A4B"/><path d="M809.94 307.064C813.271 309.962 815.442 313.978 816.022 318.358 804.307 321.749 790.812 323.07 780.218 317.628 780.878 313.874 782.699 310.424 785.43 307.764 793.523 309.699 801.976 309.457 809.94 307.064Z" fill="#F37529"/><path d="M813.551 352.291C813.801 352.961 814.041 353.632 814.281 354.292 813.741 354.251 813.221 354.108 812.741 353.872 812.971 353.326 813.241 352.798 813.551 352.291Z" fill="#FFFFFF"/><path d="M814.571 368.747C814.271 369.505 813.881 370.227 813.421 370.898L813.281 371.088C813.251 370.226 813.031 369.381 812.651 368.607 812.02 367.211 811.27 365.872 810.41 364.606 810.41 364.436 810.41 364.256 810.48 364.086L810.48 363.906C810.56 363.355 810.65 362.735 810.75 362.065 812.301 364.121 813.591 366.367 814.571 368.747Z" fill="#102A4B"/><path d="M813.411 341.417 813.411 341.417C813.201 341.377 812.981 341.357 812.771 341.357L812.551 341.357C812.25 340.797 811.95 340.256 811.64 339.736L811.91 339.686C811.91 340.107 812.07 340.513 812.35 340.827 812.621 341.148 813.001 341.358 813.411 341.417Z" fill="#102A4B"/><path d="M815.222 347.079C814.441 347.206 813.701 347.492 813.041 347.919 812.711 348.133 812.411 348.375 812.12 348.64 811.32 346.709 810.49 344.918 809.629 343.298 810.11 342.433 810.91 341.789 811.86 341.497 812.09 341.441 812.32 341.404 812.551 341.387 813.451 343.074 814.341 344.971 815.222 347.079Z" fill="#FFFFFF"/><path d="M812.651 368.607C813.031 369.381 813.251 370.226 813.281 371.088 812.45 372.219 811.56 372.839 810.86 372.739 810.62 372.739 810.17 372.649 810 371.018 809.91 368.885 810.05 366.75 810.41 364.646 811.27 365.899 812.02 367.225 812.651 368.607Z" fill="#FFFFFF"/><path d="M812.831 350.39C813.071 351.011 813.321 351.651 813.551 352.291 813.241 352.808 812.971 353.346 812.741 353.902 812.21 353.646 811.72 353.308 811.3 352.901 811.68 351.992 812.2 351.146 812.831 350.39Z" fill="#FFFFFF"/><path d="M808.759 363.876C808.819 363.455 808.889 363.005 808.959 362.545 809.459 363.255 809.959 363.966 810.41 364.646 810.05 366.75 809.91 368.885 810 371.018 810.17 372.649 810.62 372.709 810.86 372.739 811.56 372.839 812.45 372.219 813.281 371.088 813.291 371.742 812.951 372.352 812.401 372.699 811.46 373.55 810.13 373.815 808.929 373.389 807.849 371.709 808.129 368.207 808.759 363.876Z" fill="#FFFFFF"/><path d="M810.93 338.156C811.6 337.969 812.291 337.884 812.991 337.905 812.691 338.216 812.5 338.396 812.49 338.406 812.12 338.734 811.91 339.209 811.91 339.706L811.64 339.756C811.33 339.226 811.02 338.756 810.71 338.236L810.76 338.236Z" fill="#102A4B"/><path d="M812.13 348.63C812.37 349.2 812.601 349.79 812.841 350.39 812.21 351.149 811.69 351.999 811.31 352.911 810.84 352.479 810.43 351.984 810.09 351.441 810.6 350.391 811.29 349.439 812.13 348.63Z" fill="#FFFFFF"/><path d="M812.741 353.902C812.531 354.422 812.33 354.982 812.15 355.552 811.61 355.31 811.1 355.001 810.63 354.632 810.82 354.047 811.04 353.472 811.3 352.911 811.73 353.314 812.21 353.649 812.741 353.902Z" fill="#102A4B"/><path d="M812.551 341.377C812.32 341.394 812.09 341.431 811.86 341.487 810.91 341.779 810.11 342.423 809.629 343.288 809.319 342.697 809.019 342.137 808.709 341.597 809.399 340.743 810.34 340.121 811.4 339.816L811.64 339.756C811.95 340.276 812.25 340.817 812.551 341.377Z" fill="#102A4B"/><path d="M812.13 355.552C811.97 356.103 811.81 356.663 811.68 357.233 811.13 357.001 810.6 356.717 810.1 356.383 810.26 355.782 810.42 355.202 810.61 354.632 811.08 355.001 811.59 355.31 812.13 355.552Z" fill="#102A4B"/><path d="M811.23 303.672C811.61 303.962 811.98 304.272 812.33 304.593 812.01 304.96 811.72 305.347 811.46 305.753 811.41 305.832 811.36 305.906 811.3 305.973 810.44 305.204 809.519 304.512 808.539 303.902 808.589 303.815 808.639 303.732 808.699 303.652 809.019 304.017 809.479 304.225 809.969 304.222 810.45 304.221 810.9 304.022 811.23 303.672Z" fill="#102A4B"/><path d="M811.7 300.411 811.7 302.482C811.7 302.924 811.53 303.351 811.23 303.672 810.69 303.262 810.13 302.872 809.559 302.512 810.2 301.735 810.91 301.031 811.7 300.411Z" fill="#102A4B"/><path d="M811.64 339.756 811.4 339.816C810.34 340.121 809.399 340.743 808.709 341.597 808.389 341.057 808.079 340.596 807.759 340.056L807.759 340.056C808.779 339.544 809.749 338.949 810.67 338.276 811.02 338.716 811.33 339.226 811.64 339.756Z" fill="#102A4B"/><path d="M811.7 357.233C811.5 358.043 811.33 358.874 811.17 359.684L809.94 357.973 809.79 357.773C809.89 357.303 810 356.843 810.12 356.383 810.62 356.717 811.15 357.001 811.7 357.233Z" fill="#102A4B"/><path d="M811.13 359.684C810.98 360.524 810.84 361.345 810.73 362.105L809.299 360.104C809.429 359.334 809.579 358.553 809.749 357.773L809.9 357.973Z" fill="#102A4B"/><path d="M811.3 352.911C811.05 353.472 810.82 354.047 810.63 354.632 810.13 354.24 809.669 353.79 809.269 353.291 809.499 352.658 809.77 352.04 810.08 351.441 810.42 351.984 810.83 352.479 811.3 352.911Z" fill="#102A4B"/><path d="M810.7 338.226 810.7 338.226C809.78 338.899 808.809 339.494 807.789 340.006 808.599 339.182 809.599 338.57 810.7 338.226Z" fill="#102A4B"/><path d="M810.77 362.085C810.67 362.755 810.58 363.375 810.5 363.926L810.5 364.106C810.5 364.276 810.5 364.456 810.43 364.626 809.969 363.946 809.429 363.235 808.979 362.525 809.089 361.755 809.209 360.924 809.359 360.084Z" fill="#102A4B"/><path d="M810.31 337.635 810.7 338.226C809.599 338.575 808.599 339.19 807.799 340.016L807.749 340.016 807.448 339.546C807.208 339.206 806.978 338.886 806.748 338.546 807.799 338.034 808.799 337.431 809.749 336.745 809.93 337.075 810.13 337.345 810.31 337.635Z" fill="#102A4B"/><path d="M810.63 354.632C810.44 355.202 810.28 355.782 810.12 356.383 809.589 356.026 809.099 355.62 808.649 355.172 808.839 354.532 809.039 353.902 809.269 353.291 809.669 353.79 810.13 354.24 810.63 354.632Z" fill="#102A4B"/><path d="M812.13 348.63C811.3 349.443 810.63 350.394 810.13 351.441 809.679 350.726 809.339 349.947 809.129 349.13 808.629 347.469 808.689 345.688 809.309 344.068 809.419 343.798 809.559 343.537 809.709 343.288 810.49 344.908 811.32 346.699 812.13 348.63Z" fill="#FFFFFF"/><path d="M811.23 303.672C810.9 304.022 810.45 304.221 809.969 304.222 809.479 304.225 809.019 304.017 808.699 303.652 808.959 303.255 809.249 302.875 809.559 302.512 810.13 302.872 810.69 303.262 811.23 303.672Z" fill="#102A4B"/><path d="M811.3 305.973C810.76 306.632 809.819 306.798 809.089 306.363L808.899 306.233C808.219 305.701 808.039 304.75 808.469 304.002L808.539 303.902C809.519 304.512 810.44 305.204 811.3 305.973Z" fill="#102A4B"/><path d="M810.13 356.383C810.01 356.843 809.9 357.303 809.8 357.773 809.359 357.153 808.909 356.543 808.459 355.902 808.519 355.662 808.589 355.422 808.659 355.172 809.109 355.62 809.599 356.026 810.13 356.383Z" fill="#102A4B"/><path d="M810.13 351.441C809.819 352.04 809.549 352.658 809.319 353.291 808.439 352.204 807.799 350.948 807.429 349.6 806.558 346.874 807.048 343.893 808.759 341.597 809.069 342.137 809.369 342.697 809.679 343.288 809.529 343.537 809.389 343.798 809.279 344.068 808.659 345.688 808.599 347.469 809.099 349.13 809.319 349.949 809.669 350.728 810.13 351.441Z" fill="#102A4B"/><path d="M809.79 357.773C809.619 358.553 809.469 359.334 809.339 360.104 808.879 359.464 808.409 358.814 807.929 358.163 808.089 357.413 808.249 356.653 808.449 355.902 808.899 356.543 809.349 357.153 809.79 357.773Z" fill="#102A4B"/><path d="M809.339 360.084C809.189 360.924 809.069 361.755 808.959 362.525L807.509 360.524C807.629 359.754 807.769 358.964 807.929 358.163 808.409 358.814 808.879 359.464 809.339 360.084Z" fill="#102A4B"/><path d="M808.889 306.253C809.249 306.513 809.579 306.793 809.89 307.094 801.927 309.487 793.473 309.729 785.38 307.794L786.1 307.124C792.513 301.474 802.016 301.11 808.839 306.253Z" fill="#FFFFFF"/><path d="M808.659 335.445C809.009 335.865 809.369 336.325 809.739 336.815 808.789 337.501 807.789 338.104 806.738 338.616 806.358 338.106 805.978 337.615 805.608 337.225 806.678 336.734 807.699 336.138 808.659 335.445Z" fill="#102A4B"/><path d="M808.239 301.731C808.689 301.982 809.119 302.232 809.559 302.512 809.249 302.875 808.959 303.255 808.699 303.652 808.399 303.336 808.239 302.917 808.239 302.482Z" fill="#102A4B"/><path d="M808.899 306.233 808.899 306.233C802.076 301.09 792.573 301.454 786.16 307.104L786.16 307.104C786.791 306.576 786.961 305.684 786.57 304.963 786.531 304.865 786.47 304.771 786.41 304.683 792.943 299.937 801.696 299.62 808.549 303.882L808.479 303.982C808.029 304.732 808.209 305.696 808.899 306.233Z" fill="#102A4B"/><path d="M808.959 362.545C808.889 363.005 808.819 363.455 808.759 363.876 808.149 368.207 807.849 371.709 808.929 373.389 808.579 373.261 808.239 373.086 807.929 372.869 807.419 372.505 806.948 372.082 806.528 371.609L806.528 371.388C806.398 368.793 806.568 366.192 807.028 363.635L807.028 363.465C807.158 362.555 807.299 361.555 807.469 360.524Z" fill="#FFFFFF"/><path d="M809.269 353.291C809.039 353.902 808.839 354.532 808.649 355.172 807.249 353.75 806.228 351.989 805.708 350.06 804.998 347.654 805.118 345.082 806.028 342.747 806.428 341.749 807.018 340.837 807.759 340.056 808.079 340.547 808.389 341.057 808.709 341.597 806.998 343.893 806.508 346.874 807.379 349.6 807.749 350.948 808.389 352.204 809.269 353.291Z" fill="#102A4B"/><path d="M808.649 355.172C808.579 355.422 808.509 355.662 808.449 355.902 808.019 355.322 807.599 354.722 807.188 354.122 802.817 347.819 801.186 345.919 799.185 346.119 797.185 345.909 795.534 347.809 791.182 354.122 790.822 354.642 790.462 355.122 790.092 355.672 790.012 355.432 789.942 355.192 789.862 354.952 790.732 353.694 791.362 352.287 791.732 350.8 792.533 347.833 792.083 344.666 790.472 342.047L790.852 341.047C793.173 341.877 795.614 342.3 798.075 342.297 801.436 342.295 804.758 341.507 807.759 339.996L807.759 339.996C807.018 340.777 806.428 341.689 806.028 342.687 805.118 345.022 804.998 347.594 805.708 350 806.218 351.951 807.239 353.733 808.649 355.172Z" fill="#FFFFFF"/><path d="M808.699 303.652C808.639 303.732 808.589 303.815 808.539 303.902 801.686 299.64 792.933 299.957 786.4 304.703 786.1 304.213 785.77 303.748 785.4 303.312 792.083 298.442 800.966 297.828 808.259 301.731L808.259 302.482C808.249 302.914 808.409 303.333 808.699 303.652Z" fill="#102A4B"/><path d="M808.449 355.902C808.249 356.653 808.089 357.413 807.929 358.163 807.208 357.163 806.478 356.163 805.758 355.112 804.327 353.031 803.187 351.441 802.257 350.28 802.237 350.04 802.187 349.802 802.126 349.57 801.786 348.47 801.126 346.429 799.335 346.149L799.185 346.149C801.186 345.939 802.817 347.839 807.188 354.152 807.599 354.722 808.019 355.322 808.449 355.902Z" fill="#102A4B"/><path d="M807.929 358.163C807.769 358.964 807.629 359.754 807.509 360.524L807.128 360.004C806.218 358.744 805.258 357.433 804.337 356.093 803.867 355.412 803.067 354.262 802.237 353.091 802.337 352.147 802.337 351.195 802.237 350.25 803.167 351.411 804.307 353.001 805.738 355.082 806.478 356.143 807.208 357.153 807.929 358.163Z" fill="#102A4B"/><path d="M807.448 339.576 807.749 340.046C804.748 341.557 801.426 342.345 798.065 342.347 795.604 342.35 793.163 341.927 790.842 341.097 791.072 340.516 791.292 339.976 791.502 339.496 796.494 341.251 801.986 340.934 806.748 338.616 806.978 338.916 807.208 339.236 807.448 339.576Z" fill="#102A4B"/><path d="M807.128 360.004 807.509 360.524C807.339 361.525 807.198 362.525 807.068 363.465L807.068 363.635C806.608 366.192 806.438 368.793 806.568 371.388L806.568 371.609C804.157 368.917 802.217 364.116 800.976 359.744 801.566 357.574 801.986 355.359 802.227 353.121 803.057 354.262 803.857 355.412 804.327 356.123 805.258 357.433 806.218 358.744 807.128 360.004Z" fill="#FFFFFF"/><path d="M806.578 371.609C806.678 372.764 807.108 373.867 807.809 374.79 804.507 373.119 801.806 367.957 800.106 362.785 800.436 361.785 800.736 360.784 800.986 359.784 802.227 364.086 804.127 368.917 806.578 371.609Z" fill="#102A4B"/><path d="M808.659 335.445C807.719 336.135 806.718 336.731 805.658 337.225 803.727 335.114 801.956 334.404 800.366 335.114 799.936 335.289 799.465 335.289 799.035 335.114 796.995 334.485 794.774 334.925 793.133 336.285 792.783 336.778 792.483 337.308 792.243 337.865 791.152 337.489 790.102 337.01 789.101 336.435 790.162 334.224 790.642 333.834 790.932 333.604 793.343 331.628 796.554 330.909 799.575 331.663 801.836 330.933 805.048 331.213 808.659 335.445Z" fill="#FFFFFF"/><path d="M805.618 337.225C805.988 337.635 806.368 338.106 806.748 338.616 801.986 340.934 796.494 341.251 791.502 339.496 791.752 338.886 791.993 338.356 792.203 337.905 796.594 339.417 801.406 339.174 805.618 337.225Z" fill="#102A4B"/><path d="M805.618 337.225C801.406 339.174 796.594 339.417 792.203 337.905 792.443 337.348 792.743 336.818 793.093 336.325 794.734 334.965 796.954 334.525 798.995 335.154 799.426 335.329 799.896 335.329 800.326 335.154 801.917 334.404 803.687 335.074 805.618 337.225Z" fill="#FFFFFF"/><path d="M802.257 350.28C802.357 351.225 802.357 352.177 802.257 353.121 801.696 352.361 801.126 351.601 800.606 350.971 800.606 350.666 800.566 350.363 800.486 350.07 800.106 348.82 799.736 348.069 799.195 347.889 799.846 347.679 800.766 348.4 802.257 350.28Z" fill="#102A4B"/><path d="M802.126 349.57C802.187 349.802 802.237 350.04 802.257 350.28 800.766 348.4 799.846 347.679 799.175 347.889 798.515 347.679 797.605 348.4 796.104 350.28 796.124 350.04 796.174 349.802 796.234 349.57 796.574 348.47 797.235 346.429 799.025 346.149L799.185 346.149 799.335 346.149C801.126 346.429 801.786 348.47 802.126 349.57Z" fill="#102A4B"/><path d="M802.237 353.081C801.996 355.319 801.576 357.534 800.986 359.704 800.616 358.363 800.296 357.063 800.056 355.882 800.406 354.255 800.576 352.595 800.586 350.931 801.126 351.601 801.676 352.361 802.237 353.081Z" fill="#FFFFFF"/><path d="M800.586 350.971C800.576 352.635 800.406 354.295 800.056 355.922 799.585 354.184 799.416 352.377 799.556 350.58 799.625 350.35 799.686 350.17 799.746 350.01 799.986 350.26 800.276 350.59 800.586 350.971Z" fill="#FFFFFF"/><path d="M800.466 350.08C800.546 350.373 800.586 350.676 800.586 350.981 800.276 350.6 799.986 350.27 799.746 349.98 799.686 350.14 799.625 350.32 799.556 350.55 799.416 352.347 799.585 354.154 800.056 355.892 799.826 357.063 799.536 358.333 799.175 359.644 798.825 358.333 798.535 357.063 798.305 355.892 798.775 354.154 798.945 352.347 798.805 350.55 798.745 350.32 798.675 350.14 798.625 349.98 798.375 350.23 798.085 350.56 797.775 350.981 797.775 350.676 797.815 350.373 797.895 350.08 798.275 348.83 798.655 348.079 799.175 347.899 799.716 348.079 800.126 348.82 800.466 350.08Z" fill="#102A4B"/><path d="M800.986 359.744C800.736 360.744 800.436 361.745 800.106 362.745 799.766 361.745 799.455 360.674 799.175 359.674 799.536 358.363 799.826 357.093 800.056 355.922 800.296 357.083 800.616 358.403 800.986 359.744Z" fill="#102A4B"/><path d="M800.126 362.745C799.846 363.605 799.536 364.476 799.195 365.346 798.865 364.476 798.565 363.605 798.275 362.745 798.615 361.745 798.925 360.674 799.195 359.674 799.455 360.674 799.766 361.705 800.126 362.745Z" fill="#102A4B"/><path d="M799.185 346.129 799.025 346.129C797.195 346.409 796.574 348.45 796.234 349.55 796.174 349.782 796.124 350.02 796.104 350.26 795.184 351.421 794.043 353.011 792.603 355.092 791.953 356.023 791.302 356.933 790.602 357.833 790.432 357.103 790.242 356.373 790.032 355.652 790.402 355.142 790.762 354.652 791.122 354.102 795.534 347.819 797.175 345.919 799.185 346.129Z" fill="#102A4B"/><path d="M796.124 350.28C797.625 348.4 798.535 347.679 799.195 347.889 798.675 348.059 798.295 348.82 797.915 350.07 797.835 350.363 797.795 350.666 797.795 350.971 797.275 351.601 796.704 352.361 796.144 353.121 796.044 352.177 796.034 351.226 796.124 350.28Z" fill="#102A4B"/><path d="M798.805 350.58C798.945 352.377 798.775 354.184 798.305 355.922 797.955 354.295 797.785 352.635 797.775 350.971 798.085 350.59 798.375 350.26 798.625 349.97 798.675 350.17 798.745 350.35 798.805 350.58Z" fill="#102A4B"/><path d="M799.175 359.674C798.905 360.674 798.595 361.675 798.255 362.745 797.925 361.745 797.635 360.744 797.375 359.744 797.755 358.403 798.065 357.103 798.305 355.922 798.535 357.083 798.825 358.363 799.175 359.674Z" fill="#102A4B"/><path d="M798.255 362.745C798.545 363.605 798.845 364.476 799.175 365.346 797.485 369.698 795.174 373.719 792.423 375.68 791.242 376.557 789.812 377.044 788.341 377.071L788.121 377.071 788.411 377.071C790.132 376.85 791.542 375.575 791.923 373.879 794.614 371.609 796.764 367.197 798.255 362.745Z" fill="#102A4B"/><path d="M797.775 350.971C797.785 352.635 797.955 354.295 798.305 355.922 798.065 357.103 797.755 358.403 797.375 359.744 796.784 357.56 796.364 355.332 796.124 353.081 796.684 352.361 797.255 351.601 797.775 350.971Z" fill="#102A4B"/><path d="M797.375 359.744C797.635 360.744 797.925 361.745 798.255 362.745 796.764 367.197 794.614 371.609 791.963 373.839 792.113 373.316 792.223 372.781 792.283 372.239 792.283 371.829 792.343 371.388 792.353 370.928 794.504 368.157 796.234 363.766 797.375 359.744Z" fill="#102A4B"/><path d="M796.124 353.081C796.364 355.318 796.784 357.533 797.375 359.704 796.234 363.706 794.504 368.117 792.373 370.888 792.343 368.733 792.153 366.584 791.803 364.456L791.803 364.276C791.622 363.015 791.422 361.595 791.162 360.124L791.272 359.964C792.193 358.704 793.143 357.393 794.063 356.052 794.494 355.412 795.294 354.262 796.124 353.081Z" fill="#FFFFFF"/><path d="M796.124 350.28C796.034 351.225 796.034 352.177 796.124 353.121 795.294 354.262 794.494 355.412 794.023 356.123 793.103 357.463 792.153 358.774 791.232 360.034L791.122 360.194C790.982 359.424 790.832 358.654 790.652 357.883 791.302 356.983 791.953 356.073 792.653 355.142 794.043 353.081 795.184 351.441 796.124 350.28Z" fill="#102A4B"/><path d="M793.353 400.42C793.763 400.82 793.833 401.08 793.833 401.13 793.833 401.18 793.053 402.13 790.252 402.741 788.881 403.032 787.471 403.127 786.07 403.021 784.55 402.951 782.249 402.841 781.649 405.772 781.358 407.182 781.539 410.384 781.859 415.476 781.989 417.476 782.119 419.637 782.199 421.618 775.576 420.317 772.365 418.617 771.625 417.396 771.115 416.516 771.014 413.125 772.285 405.742L772.735 405.822C772.545 406.759 773.155 407.672 774.086 407.86 774.946 408.033 775.806 407.535 776.076 406.702 776.597 405.266 777.207 403.866 777.907 402.51L777.907 402.451C778.397 401.304 779.128 400.28 780.058 399.449 783.119 398.929 792.123 399.149 793.353 400.42Z" fill="#FFFFFF"/><path d="M791.782 364.496C792.133 366.624 792.323 368.773 792.353 370.928 791.803 371.653 791.162 372.296 790.432 372.839 790.832 370.938 790.542 368.087 790.072 364.736 789.962 363.956 789.832 363.075 789.692 362.145 790.152 361.495 790.632 360.834 791.122 360.144 791.382 361.615 791.582 363.035 791.762 364.296Z" fill="#FFFFFF"/><path d="M792.353 370.928C792.353 371.388 792.353 371.829 792.283 372.239 792.223 372.781 792.113 373.316 791.963 373.839 790.902 374.836 789.492 375.372 788.031 375.33L788.211 375.33C789.472 375.16 790.142 374.27 790.432 372.859 791.162 372.31 791.803 371.66 792.353 370.928Z" fill="#102A4B"/><path d="M790.042 350.39C790.252 349.529 790.362 348.646 790.362 347.759 790.372 346.521 790.132 345.293 789.662 344.148 789.942 343.398 790.212 342.697 790.462 342.047 792.073 344.666 792.523 347.833 791.722 350.8 791.352 352.287 790.722 353.694 789.852 354.952 789.622 354.272 789.362 353.604 789.061 352.951 789.492 352.142 789.822 351.282 790.042 350.39Z" fill="#102A4B"/><path d="M792.203 337.905C791.993 338.356 791.752 338.906 791.502 339.496 790.412 339.114 789.352 338.635 788.341 338.066 788.611 337.452 788.851 336.922 789.061 336.475 790.062 337.05 791.112 337.529 792.203 337.905Z" fill="#102A4B"/><path d="M791.502 339.496C791.292 339.976 791.072 340.497 790.842 341.097 790.162 340.857 789.492 340.577 788.841 340.276 788.491 339.999 788.121 339.758 787.721 339.556 787.941 339.006 788.151 338.556 788.341 338.066 789.352 338.635 790.412 339.114 791.502 339.496Z" fill="#102A4B"/><path d="M790.652 357.853C790.832 358.624 790.982 359.394 791.122 360.164 790.632 360.834 790.122 361.495 789.692 362.165 789.572 361.395 789.432 360.584 789.271 359.774 789.732 359.134 790.182 358.493 790.652 357.853Z" fill="#102A4B"/><path d="M790.842 341.077 790.462 342.077C790.022 341.401 789.472 340.803 788.841 340.306 789.492 340.577 790.122 340.857 790.842 341.077Z" fill="#102A4B"/><path d="M791.963 373.839C791.582 375.535 790.172 376.81 788.451 377.031L788.161 377.031C787.001 376.969 785.88 376.625 784.88 376.03 784.46 375.735 784.069 375.4 783.719 375.03 783.869 374.44 784.02 373.869 784.189 373.289 784.41 373.55 784.66 373.784 784.94 373.989 785.23 374.206 785.54 374.403 785.86 374.58 786.49 375.037 787.251 375.266 788.031 375.23 789.472 375.299 790.882 374.8 791.963 373.839Z" fill="#102A4B"/><path d="M790.122 364.736C790.592 368.087 790.882 370.938 790.482 372.839L790.482 372.839C789.822 373.366 788.981 373.623 788.131 373.559 788.381 373.559 788.771 373.349 788.931 371.849 789.021 369.537 788.861 367.223 788.451 364.946L788.451 364.766C788.451 364.586 788.391 364.386 788.361 364.186 788.821 363.515 789.302 362.825 789.812 362.115 789.832 363.085 789.962 363.956 790.122 364.736Z" fill="#FFFFFF"/><path d="M784.27 373.089C783.969 372.69 783.689 372.273 783.439 371.839 783.269 370.714 783.409 369.563 783.859 368.517 784.17 369.465 784.59 370.374 785.1 371.228 785.14 371.821 785.46 372.357 785.97 372.669 786.21 372.848 786.47 373.009 786.74 373.149 787.081 373.439 787.521 373.589 787.971 373.569L788.031 373.569C788.881 373.633 789.722 373.376 790.382 372.849L790.382 372.849C790.092 374.26 789.382 375.15 788.161 375.32L787.981 375.32C787.221 375.26 786.48 375.038 785.81 374.67 785.22 374.227 784.7 373.693 784.27 373.089Z" fill="#102A4B"/><path d="M790.122 355.672C790.332 356.393 790.522 357.123 790.692 357.853 790.222 358.493 789.772 359.134 789.312 359.754 789.172 359.004 789.001 358.243 788.811 357.493 789.211 356.893 789.642 356.293 790.122 355.672Z" fill="#102A4B"/><path d="M790.362 347.759C790.362 349.567 789.912 351.347 789.061 352.941 788.781 352.28 788.451 351.644 788.061 351.041 788.191 350.689 788.301 350.332 788.401 349.97 788.631 349.025 788.711 348.048 788.631 347.079 789.001 346.079 789.362 345.078 789.702 344.148 790.162 345.296 790.382 346.524 790.362 347.759Z" fill="#102A4B"/><path d="M789.852 354.952C789.932 355.192 790.002 355.432 790.082 355.672 789.642 356.293 789.211 356.893 788.771 357.493 788.691 357.163 788.601 356.843 788.511 356.493 789.001 356.021 789.452 355.505 789.852 354.952Z" fill="#102A4B"/><path d="M790.462 342.077C790.212 342.727 789.942 343.428 789.662 344.178 789.172 342.909 788.261 341.849 787.081 341.177L787.671 339.676C788.061 339.886 788.441 340.086 788.841 340.276 789.482 340.782 790.032 341.39 790.462 342.077Z" fill="#102A4B"/><path d="M789.271 359.754C789.432 360.564 789.572 361.375 789.692 362.145 789.182 362.855 788.691 363.545 788.241 364.216 788.141 363.465 788.011 362.615 787.861 361.725Z" fill="#102A4B"/><path d="M789.061 352.941C789.362 353.594 789.622 354.262 789.852 354.942 789.452 355.502 789.001 356.024 788.511 356.503 788.331 355.872 788.131 355.252 787.901 354.652 788.351 354.128 788.741 353.554 789.061 352.941Z" fill="#102A4B"/><path d="M788.771 357.493C788.961 358.243 789.131 359.004 789.271 359.754L787.861 361.755C787.741 360.984 787.591 360.184 787.421 359.394L788.421 358.003Z" fill="#102A4B"/><path d="M789.662 344.148C789.322 345.058 788.961 346.039 788.591 347.079 788.571 345.404 787.781 343.832 786.45 342.817 786.671 342.227 786.881 341.687 787.081 341.177 788.261 341.841 789.172 342.89 789.662 344.148Z" fill="#102A4B"/><path d="M788.351 364.976C788.761 367.253 788.921 369.567 788.831 371.879 788.671 373.379 788.281 373.549 788.031 373.589 787.581 373.537 787.141 373.398 786.74 373.179 786.22 372.781 785.78 372.302 785.42 371.759 785.3 371.598 785.2 371.43 785.1 371.258 785.08 370.339 785.29 369.429 785.7 368.607 786.42 367.072 787.271 365.602 788.241 364.216 788.241 364.416 788.301 364.616 788.331 364.796Z" fill="#FFFFFF"/><path d="M788.771 357.493 788.431 357.973 787.431 359.364C787.321 358.794 787.181 358.233 787.051 357.683 787.581 357.343 788.071 356.951 788.521 356.513 788.601 356.843 788.691 357.163 788.771 357.493Z" fill="#102A4B"/><path d="M788.471 384.093C788.671 384.355 788.761 384.688 788.711 385.014 788.611 386.644 787.051 389.015 784.25 390.476 781.128 392.077 778.137 393.938 775.326 396.038 775.006 396.285 774.786 396.64 774.706 397.038L774.066 396.888C774.536 394.821 775.076 392.554 775.686 390.086 780.608 386.964 786.48 384.083 788.331 384.083Z" fill="#FFFFFF"/><path d="M788.591 347.079C788.671 348.048 788.591 349.025 788.361 349.97 788.261 350.332 788.151 350.689 788.021 351.041 787.841 350.78 787.661 350.53 787.461 350.29 787.851 349.16 788.231 348.079 788.591 347.079Z" fill="#FFFFFF"/><path d="M789.061 336.475C788.851 336.922 788.611 337.452 788.341 338.066 782.639 334.841 778.898 329.014 778.337 322.49L778.337 322.49C779.238 322.426 779.948 321.676 779.948 320.769L779.948 320.769C779.958 327.258 783.429 333.25 789.061 336.475Z" fill="#102A4B"/><path d="M788.021 351.081C788.411 351.684 788.741 352.32 789.021 352.981 788.701 353.598 788.311 354.175 787.861 354.702 787.631 354.084 787.361 353.482 787.051 352.901 787.441 352.335 787.771 351.724 788.021 351.081Z" fill="#102A4B"/><path d="M788.841 340.276C788.441 340.086 788.061 339.886 787.671 339.676L787.671 339.556C788.081 339.755 788.481 339.996 788.841 340.276Z" fill="#102A4B"/><path d="M787.901 354.662C788.131 355.262 788.331 355.882 788.511 356.513 788.061 356.951 787.571 357.343 787.041 357.683 786.881 357.093 786.72 356.513 786.531 355.962 787.041 355.584 787.501 355.148 787.901 354.662Z" fill="#102A4B"/><path d="M786.45 342.817C787.781 343.832 788.571 345.404 788.591 347.079 788.231 348.079 787.851 349.16 787.461 350.29 786.991 349.697 786.42 349.18 785.79 348.76 785.4 348.505 784.97 348.299 784.53 348.149L784.71 347.649C785.36 345.789 785.94 344.198 786.45 342.817Z" fill="#FFFFFF"/><path d="M788.031 375.33C787.251 375.366 786.49 375.137 785.86 374.68 786.531 375.048 787.271 375.27 788.031 375.33Z" fill="#102A4B"/><path d="M788.031 373.589 787.971 373.589C787.521 373.609 787.081 373.459 786.74 373.169 787.141 373.391 787.581 373.534 788.031 373.589Z" fill="#102A4B"/><path d="M788.121 377.091 787.771 377.091C786.72 377.059 785.69 376.711 784.84 376.09 785.84 376.685 786.961 377.029 788.121 377.091Z" fill="#102A4B"/><path d="M787.861 361.725C788.011 362.615 788.141 363.465 788.241 364.216 787.271 365.602 786.42 367.072 785.7 368.607 785.29 369.429 785.08 370.339 785.1 371.258 784.59 370.404 784.17 369.495 783.859 368.547 784.92 366.122 786.26 363.832 787.861 361.725Z" fill="#102A4B"/><path d="M788.341 338.076C788.151 338.526 787.941 339.016 787.721 339.566 787.441 339.435 787.161 339.318 786.871 339.216 780.948 335.618 777.117 329.397 776.557 322.49 776.907 322.49 777.237 322.49 777.557 322.49 777.877 322.49 778.077 322.49 778.307 322.49 778.867 329.023 782.629 334.857 788.341 338.076Z" fill="#102A4B"/><path d="M787.461 350.29C787.661 350.53 787.841 350.78 788.021 351.041 787.781 351.682 787.471 352.293 787.091 352.861 786.991 352.671 786.881 352.491 786.771 352.311 787.011 351.621 787.241 350.94 787.461 350.29Z" fill="#FFFFFF"/><path d="M787.721 339.556 787.721 339.676 786.921 339.206C787.191 339.31 787.461 339.426 787.721 339.556Z" fill="#102A4B"/><path d="M787.421 359.364C787.591 360.154 787.741 360.954 787.861 361.725 786.26 363.832 784.92 366.122 783.859 368.547 783.569 367.668 783.349 366.769 783.189 365.856 784.45 363.601 785.87 361.433 787.421 359.364Z" fill="#102A4B"/><path d="M787.121 352.861C787.431 353.441 787.701 354.044 787.931 354.662 787.531 355.148 787.071 355.584 786.56 355.962 786.4 355.482 786.23 355.022 786.04 354.582 786.12 354.362 786.19 354.132 786.27 353.912 786.58 353.588 786.871 353.236 787.121 352.861Z" fill="#102A4B"/><path d="M786.871 339.206 787.671 339.676 787.081 341.177C786.73 340.993 786.36 340.848 785.98 340.747 785.67 340.675 785.36 340.63 785.05 340.617 784.98 340.068 784.65 339.586 784.17 339.316 783.99 339.219 783.819 339.112 783.659 338.996 784.56 338.829 785.49 338.853 786.39 339.066Z" fill="#102A4B"/><path d="M787.041 357.683C787.171 358.233 787.311 358.794 787.421 359.364 785.87 361.432 784.46 363.601 783.189 365.856 783.189 365.656 783.119 365.456 783.089 365.246 783.059 365.036 782.989 364.576 782.939 364.246 783.529 362.335 784.099 360.494 784.67 358.734 785.51 358.516 786.31 358.162 787.041 357.683Z" fill="#FFFFFF"/><path d="M787.461 350.29C787.241 350.94 787.011 351.621 786.771 352.291 786.16 351.152 785.17 350.261 783.969 349.77 784.16 349.21 784.35 348.67 784.53 348.129 784.97 348.28 785.4 348.485 785.79 348.74 786.42 349.166 786.991 349.689 787.461 350.29Z" fill="#FFFFFF"/><path d="M786.771 352.311C786.881 352.491 786.991 352.671 787.091 352.861 786.841 353.236 786.551 353.588 786.24 353.912Z" fill="#FFFFFF"/><path d="M786.531 355.962C786.72 356.513 786.881 357.093 787.041 357.683 786.31 358.144 785.51 358.482 784.67 358.684L785.33 356.683C785.75 356.485 786.16 356.244 786.531 355.962Z" fill="#102A4B"/><path d="M786.771 352.311 786.24 353.912 785.87 354.262C785.45 353.231 784.76 352.335 783.869 351.671 783.709 351.575 783.539 351.495 783.359 351.431 783.549 350.871 783.729 350.33 783.919 349.79 785.14 350.271 786.14 351.164 786.771 352.311Z" fill="#FFFFFF"/><path d="M786.24 353.912C786.16 354.132 786.09 354.362 786.01 354.582 785.97 354.473 785.92 354.366 785.87 354.262Z" fill="#102A4B"/><path d="M786.74 373.179C786.47 373.039 786.21 372.878 785.97 372.699 785.46 372.387 785.14 371.851 785.1 371.258 785.2 371.43 785.3 371.598 785.42 371.759 785.78 372.302 786.22 372.781 786.74 373.179Z" fill="#FFFFFF"/><path d="M786.01 354.582C786.2 355.022 786.37 355.482 786.531 355.962 786.16 356.24 785.75 356.478 785.33 356.673Z" fill="#102A4B"/><path d="M785.87 354.262C785.92 354.366 785.97 354.473 786.01 354.582L785.33 356.673C784.29 357.18 783.109 357.311 781.979 357.043 781.909 357.029 781.849 357.009 781.789 356.983L781.729 356.543C781.869 356.123 781.999 355.702 782.139 355.282L782.389 355.362C783.659 355.592 784.96 355.181 785.87 354.262Z" fill="#102A4B"/><path d="M785.69 422.218C785.69 423.479 785.76 424.669 785.75 425.729 784.62 425.559 783.459 425.379 782.289 425.159 782.289 424.099 782.289 422.898 782.199 421.618 783.279 421.828 784.44 422.028 785.69 422.218Z" fill="#102A4B"/><path d="M785.38 303.312C785.75 303.748 786.08 304.213 786.38 304.703 785.45 305.387 784.57 306.15 783.769 306.983 783.659 306.87 783.559 306.742 783.479 306.603 783.269 306.246 783.019 305.91 782.739 305.603 783.559 304.773 784.44 304.006 785.38 303.312Z" fill="#102A4B"/><path d="M783.919 351.671C784.81 352.335 785.5 353.231 785.92 354.262 785.01 355.181 783.709 355.592 782.439 355.362L782.189 355.282C782.619 353.962 783.049 352.681 783.459 351.431 783.619 351.498 783.769 351.578 783.919 351.671Z" fill="#FFFFFF"/><path d="M785.86 374.68C785.54 374.503 785.23 374.305 784.94 374.089 784.66 373.884 784.41 373.65 784.189 373.389L784.189 373.389C784.189 373.299 784.189 373.209 784.27 373.119 784.71 373.72 785.25 374.247 785.86 374.68Z" fill="#102A4B"/><path d="M785.05 340.617C785.1 340.961 785.03 341.311 784.87 341.617 784.66 342.02 784.3 342.325 783.869 342.467 783.709 342.515 783.549 342.538 783.389 342.537 783.109 342.54 782.829 342.471 782.579 342.337 782.229 342.15 781.899 341.94 781.578 341.707 782.589 340.972 783.799 340.589 785.05 340.617Z" fill="#102A4B"/><path d="M785.05 340.617C783.789 340.594 782.559 340.992 781.549 341.747 781.068 341.406 780.598 341.039 780.158 340.647 781.178 339.823 782.379 339.257 783.659 338.996 783.819 339.112 783.99 339.219 784.17 339.316 784.65 339.586 784.98 340.068 785.05 340.617Z" fill="#102A4B"/><path d="M785.33 356.673 784.67 358.674C784.15 358.805 783.619 358.872 783.079 358.874 782.739 358.872 782.409 358.842 782.079 358.784 781.989 358.183 781.899 357.563 781.819 356.943 781.879 356.969 781.939 356.989 782.009 357.003 783.119 357.276 784.29 357.16 785.33 356.673Z" fill="#102A4B"/><path d="M784.27 373.089C784.27 373.179 784.219 373.269 784.189 373.359 783.819 372.923 783.559 372.4 783.439 371.839 783.689 372.273 783.969 372.69 784.27 373.089Z" fill="#102A4B"/><path d="M784.189 373.389 784.189 373.389C784.02 373.969 783.869 374.54 783.719 375.13 783.299 374.699 782.909 374.234 782.569 373.739 782.279 373.319 782.019 372.885 781.779 372.439 781.509 371.139 781.599 369.789 782.039 368.537 782.379 369.697 782.849 370.814 783.439 371.869 783.559 372.43 783.819 372.953 784.189 373.389Z" fill="#102A4B"/><path d="M784.88 376.09C784.54 375.902 784.199 375.695 783.879 375.47 783.789 375.41 783.719 375.34 783.639 375.28 783.559 375.22 783.639 375.17 783.639 375.11 784.02 375.477 784.44 375.805 784.88 376.09Z" fill="#102A4B"/><path d="M781.489 300.301C782.979 301.024 784.3 302.046 785.38 303.302 784.45 303.987 783.569 304.744 782.759 305.563 781.749 304.36 780.418 303.467 778.918 302.982L779.088 302.462C779.298 302.555 779.528 302.603 779.758 302.602 780.718 302.602 781.489 301.826 781.489 300.871Z" fill="#102A4B"/><path d="M783.829 342.507 783.829 342.507C781.989 343.078 780.258 345.148 779.598 347.819 779.518 348.148 779.458 348.483 779.418 348.82 779.258 348.962 779.118 349.12 778.998 349.29 778.928 349.187 778.837 349.093 778.747 349.01 778.747 349.01 778.367 348.66 777.747 348.079 777.747 347.849 777.837 347.619 777.887 347.389 778.387 345.132 779.678 343.128 781.519 341.727 781.839 341.96 782.169 342.17 782.519 342.357 782.769 342.491 783.049 342.56 783.329 342.557 783.499 342.567 783.669 342.55 783.829 342.507Z" fill="#102A4B"/><path d="M778.627 316.777C778.477 317.528 778.367 318.286 778.297 319.048 778.227 319.038 778.167 319.038 778.097 319.048 777.587 319.069 777.067 319.052 776.557 318.998 776.977 313.934 779.168 309.181 782.759 305.583 783.039 305.89 783.289 306.226 783.499 306.583 783.579 306.722 783.679 306.85 783.789 306.964 781.168 309.676 779.378 313.081 778.627 316.777Z" fill="#102A4B"/><path d="M783.719 375.09C783.719 375.15 783.719 375.2 783.719 375.26 782.779 374.547 782.109 373.538 781.819 372.399 782.059 372.845 782.319 373.279 782.609 373.699 782.939 374.193 783.309 374.658 783.719 375.09Z" fill="#102A4B"/><path d="M783.969 349.79C783.779 350.33 783.599 350.871 783.409 351.431 782.869 351.255 782.299 351.255 781.759 351.431 781.419 352.6 781.348 353.834 781.568 355.032 780.798 354.537 780.198 353.804 779.878 352.941 779.838 352.859 779.808 352.776 779.778 352.691 779.868 351.151 780.268 350.06 781.168 349.8 782.079 349.495 783.059 349.492 783.969 349.79Z" fill="#FFFFFF"/><path d="M783.679 375.3C783.089 377.681 780.218 419.837 779.908 422.218 778.697 422.768 773.595 418.577 771.975 419.467 771.585 419.687 769.884 414.245 769.484 414.465 769.954 412.654 777.887 381.632 778.487 379.652L778.487 379.532 778.487 379.532C778.797 378.401 779.118 377.251 779.488 376.06 779.998 374.253 780.508 372.479 781.018 370.738 781.248 371.323 781.519 371.894 781.819 372.449 782.109 373.579 782.759 374.583 783.679 375.3Z" fill="#F37529"/><path d="M783.119 358.914C783.659 358.912 784.189 358.845 784.71 358.714 784.14 360.474 783.569 362.315 782.979 364.226 782.839 363.375 782.699 362.495 782.539 361.575 782.409 360.814 782.249 359.854 782.089 358.824 782.429 358.884 782.769 358.914 783.119 358.914Z" fill="#FFFFFF"/><path d="M783.409 351.431C782.999 352.681 782.569 353.962 782.139 355.282 781.939 355.216 781.749 355.129 781.568 355.022 781.348 353.824 781.419 352.59 781.759 351.421 782.299 351.249 782.879 351.252 783.409 351.431Z" fill="#FFFFFF"/><path d="M783.859 368.547C783.409 369.593 783.269 370.744 783.439 371.869 782.849 370.814 782.379 369.697 782.039 368.537 782.179 368.091 782.339 367.653 782.529 367.227 782.719 366.787 782.949 366.326 783.189 365.856 783.349 366.769 783.569 367.668 783.859 368.547Z" fill="#102A4B"/><path d="M783.119 365.246C783.119 365.456 783.189 365.656 783.219 365.856 782.979 366.326 782.749 366.787 782.559 367.227 782.369 367.653 782.209 368.091 782.069 368.537 781.999 368.307 781.939 368.077 781.869 367.837 782.239 366.607 782.609 365.406 782.969 364.226 782.999 364.579 783.049 364.919 783.119 365.246Z" fill="#102A4B"/><path d="M782.939 364.226C782.579 365.406 782.209 366.607 781.839 367.837 781.639 367.063 781.489 366.277 781.378 365.486 781.148 363.916 780.828 362.125 780.528 360.314L781.068 358.583C781.228 358.643 781.398 358.693 781.568 358.734 781.729 358.774 781.889 358.804 782.049 358.824 782.209 359.824 782.369 360.824 782.499 361.575 782.659 362.495 782.799 363.375 782.939 364.226Z" fill="#102A4B"/><path d="M782.119 355.282C781.979 355.702 781.849 356.123 781.708 356.543 781.649 356.023 781.589 355.542 781.549 355.022 781.729 355.129 781.919 355.216 782.119 355.282Z" fill="#102A4B"/><path d="M781.839 367.837C781.909 368.077 781.969 368.307 782.039 368.537 781.599 369.789 781.509 371.139 781.779 372.439 781.479 371.884 781.208 371.313 780.978 370.728Z" fill="#102A4B"/><path d="M781.789 356.983C781.869 357.603 781.959 358.223 782.049 358.824 781.889 358.804 781.729 358.774 781.568 358.734 781.398 358.693 781.228 358.643 781.068 358.583L781.609 356.923C781.669 356.953 781.729 356.974 781.789 356.983Z" fill="#102A4B"/><path d="M781.729 356.543 781.789 356.983C781.729 356.974 781.669 356.953 781.609 356.923Z" fill="#102A4B"/><path d="M781.729 356.543 781.609 356.923C780.978 356.714 780.398 356.373 779.908 355.922 779.788 354.843 779.738 353.757 779.778 352.671 779.808 352.756 779.838 352.839 779.878 352.921 780.198 353.784 780.788 354.517 781.568 355.012 781.609 355.512 781.669 356.023 781.729 356.543Z" fill="#102A4B"/><path d="M781.489 300.301 781.489 300.881C781.489 301.836 780.718 302.612 779.758 302.612 779.528 302.613 779.298 302.565 779.088 302.472 778.447 302.203 778.027 301.576 778.027 300.881L778.027 299.24C779.228 299.413 780.398 299.771 781.489 300.301Z" fill="#102A4B"/><path d="M781.378 365.486C781.489 366.277 781.639 367.063 781.839 367.837L780.978 370.728C780.338 369.121 779.898 367.441 779.658 365.726 779.578 365.166 779.488 364.586 779.388 363.976 779.768 362.745 780.148 361.515 780.528 360.304 780.828 362.085 781.118 363.916 781.378 365.486Z" fill="#102A4B"/><path d="M781.609 356.923 781.068 358.583C780.768 358.484 780.478 358.363 780.198 358.223 780.088 357.443 779.988 356.673 779.908 355.932 780.398 356.379 780.978 356.717 781.609 356.923Z" fill="#102A4B"/><path d="M778.918 302.992C780.418 303.477 781.749 304.37 782.759 305.573 779.168 309.171 776.977 313.924 776.557 318.988 775.456 318.893 774.386 318.619 773.375 318.178L773.285 318.178C771.525 317.398 770.224 315.847 769.754 313.976 769.044 310.893 769.864 307.656 771.955 305.283 772.025 305.193 772.115 305.103 772.195 305.013L772.195 305.013C773.425 303.519 775.266 302.669 777.197 302.702 777.777 302.738 778.357 302.835 778.918 302.992Z" fill="#FFFFFF"/><path d="M781.118 358.583 780.578 360.314C780.458 359.614 780.348 358.914 780.248 358.223 780.528 358.363 780.818 358.484 781.118 358.583Z" fill="#102A4B"/><path d="M780.198 358.223C780.298 358.914 780.408 359.614 780.528 360.314 780.148 361.525 779.768 362.755 779.388 363.986 779.288 363.395 779.188 362.775 779.078 362.145 778.767 360.284 778.447 358.453 778.247 356.753 778.797 357.358 779.468 357.856 780.198 358.223Z" fill="#102A4B"/><path d="M780.118 340.647C780.558 341.039 781.028 341.406 781.509 341.747 779.668 343.148 778.377 345.152 777.877 347.409 777.877 347.639 777.777 347.869 777.737 348.099 777.347 347.709 776.857 347.219 776.297 346.629 776.907 344.281 778.247 342.187 780.118 340.647Z" fill="#102A4B"/><path d="M780.218 317.658C780.038 318.685 779.948 319.726 779.948 320.769L779.948 320.769C779.948 320.729 779.948 320.689 779.948 320.649 779.888 319.773 779.188 319.082 778.307 319.048 778.377 318.286 778.487 317.528 778.637 316.777 779.118 317.067 779.678 317.388 780.218 317.658Z" fill="#102A4B"/><path d="M779.908 355.932C779.988 356.673 780.088 357.443 780.198 358.223 779.468 357.856 778.797 357.358 778.247 356.753 778.087 355.496 778.017 354.229 778.037 352.961 778.377 354.103 779.028 355.13 779.908 355.932Z" fill="#102A4B"/><path d="M779.938 320.649C779.938 320.689 779.938 320.729 779.938 320.769 779.938 321.676 779.228 322.426 778.327 322.49L778.327 322.49C778.327 321.919 778.247 321.349 778.247 320.769 778.247 320.189 778.247 319.608 778.327 319.048 779.188 319.097 779.888 319.784 779.938 320.649Z" fill="#102A4B"/><path d="M780.978 370.728C780.468 372.469 779.958 374.243 779.448 376.05 779.108 377.241 778.787 378.391 778.447 379.522 778.587 378.967 778.447 378.381 778.067 377.951 777.437 377.233 776.346 377.163 775.626 377.793 775.626 377.796 775.616 377.798 775.616 377.801L775.226 378.151C775.586 376.851 775.936 375.61 776.226 374.46 777.227 370.978 778.227 367.457 779.318 363.986 779.418 364.596 779.508 365.176 779.588 365.736 779.848 367.45 780.318 369.127 780.978 370.728Z" fill="#102A4B"/><path d="M779.418 348.84C779.348 349.33 779.318 349.825 779.338 350.32L779.338 350.32C779.338 349.96 779.218 349.611 779.008 349.32 779.128 349.147 779.268 348.986 779.418 348.84Z" fill="#102A4B"/><path d="M779.118 302.472 778.948 302.992C778.407 302.815 777.847 302.695 777.287 302.632 775.356 302.599 773.515 303.449 772.285 304.943 772.435 304.779 772.555 304.585 772.635 304.372 772.965 303.486 772.515 302.502 771.635 302.162 771.585 302.162 771.194 302.012 770.554 301.852 772.465 299.981 775.086 299.013 777.757 299.19L778.147 299.24 778.147 300.881C778.137 301.555 778.507 302.176 779.118 302.472Z" fill="#102A4B"/><path d="M778.998 349.31C779.208 349.601 779.328 349.95 779.328 350.31 779.328 350.735 779.178 351.147 778.887 351.461 778.677 351.694 778.417 351.864 778.117 351.951 778.187 351.011 778.487 350.103 778.998 349.31Z" fill="#102A4B"/><path d="M778.747 349.08C778.837 349.163 778.928 349.257 778.998 349.36 778.487 350.156 778.187 351.068 778.117 352.011 778.017 352.048 777.907 352.072 777.797 352.081 777.547 350.782 777.547 349.448 777.797 348.149 778.367 348.68 778.737 349.02 778.747 349.08Z" fill="#102A4B"/><path d="M778.117 377.951C778.497 378.381 778.637 378.967 778.497 379.522L778.497 379.522 778.497 379.642C778.397 379.922 778.227 380.173 778.007 380.372 778.007 380.372 776.216 381.963 773.515 384.834 774.126 382.483 774.736 380.232 775.316 378.131L775.706 377.781C776.427 377.174 777.497 377.25 778.117 377.951Z" fill="#102A4B"/><path d="M778.297 319.068C778.297 319.628 778.217 320.199 778.217 320.789 778.217 321.379 778.217 321.939 778.297 322.51 778.067 322.51 777.817 322.51 777.547 322.51 777.237 322.51 776.907 322.51 776.547 322.51 776.547 321.939 776.477 321.369 776.477 320.799 776.477 320.229 776.477 319.608 776.547 319.018 777.057 319.072 777.577 319.089 778.087 319.068 778.157 319.057 778.227 319.057 778.297 319.068Z" fill="#102A4B"/><path d="M778.117 351.961C778.117 352.281 778.047 352.621 778.037 352.961 777.947 352.661 777.867 352.351 777.797 352.031 777.907 352.022 778.017 351.999 778.117 351.961Z" fill="#102A4B"/><path d="M777.947 380.392C778.167 380.193 778.337 379.942 778.437 379.662 777.887 381.662 777.377 383.556 776.907 385.344 775.506 386.154 774.046 387.055 772.645 387.985 772.915 386.924 773.185 385.884 773.455 384.854 776.116 381.983 777.927 380.412 777.947 380.392Z" fill="#102A4B"/><path d="M778.037 352.961C778.017 354.229 778.087 355.496 778.247 356.753 777.587 356.026 777.057 355.189 776.677 354.282 776.266 353.273 776.006 352.207 775.916 351.121 776.206 351.401 776.397 351.571 776.447 351.611 776.757 351.897 777.167 352.054 777.597 352.051L777.797 352.051C777.867 352.358 777.947 352.661 778.037 352.961Z" fill="#102A4B"/><path d="M777.797 352.081 777.597 352.081C777.167 352.084 776.757 351.927 776.447 351.641 776.447 351.641 776.206 351.431 775.916 351.151 775.796 349.768 775.906 348.376 776.236 347.029 776.236 346.909 776.297 346.779 776.336 346.659 776.897 347.249 777.337 347.739 777.777 348.129 777.527 349.436 777.537 350.777 777.797 352.081Z" fill="#102A4B"/><path d="M776.557 318.988C776.557 319.578 776.487 320.169 776.487 320.769 776.487 321.369 776.487 321.909 776.557 322.479 775.916 322.435 775.276 322.342 774.646 322.199 774.366 320.629 774.266 319.578 774.256 319.538 774.206 318.966 773.876 318.455 773.375 318.178 774.386 318.619 775.456 318.893 776.557 318.988Z" fill="#102A4B"/><path d="M776.907 385.344C776.467 387.005 776.056 388.595 775.686 390.106 774.906 390.596 774.166 391.106 773.455 391.586 772.745 392.066 772.015 392.587 771.395 393.117 771.795 391.396 772.225 389.676 772.645 387.985 774.046 387.095 775.506 386.154 776.907 385.344Z" fill="#102A4B"/><path d="M774.256 319.538C774.256 319.538 774.366 320.629 774.646 322.199 773.335 321.929 772.075 321.454 770.914 320.789 770.844 320.249 770.814 319.909 770.804 319.848 770.724 318.897 771.425 318.058 772.375 317.968 772.685 317.943 773.005 318.002 773.285 318.138L773.375 318.138C773.886 318.422 774.226 318.951 774.256 319.538Z" fill="#102A4B"/><path d="M773.285 318.138C773.005 318.002 772.685 317.943 772.375 317.968 771.425 318.058 770.724 318.897 770.804 319.848 770.804 319.909 770.804 320.249 770.914 320.789 768.654 319.493 767.013 317.323 766.403 314.786 765.552 311.414 766.103 307.842 767.933 304.883 768.754 304.983 769.564 305.157 770.354 305.403 771.004 305.635 771.725 305.458 772.195 304.953 772.115 305.043 772.025 305.133 771.955 305.223 769.864 307.596 769.044 310.833 769.754 313.916 770.214 315.794 771.515 317.354 773.285 318.138Z" fill="#102A4B"/><path d="M771.515 302.162C772.395 302.502 772.845 303.486 772.515 304.372 772.435 304.585 772.315 304.779 772.165 304.943L772.165 304.943C771.695 305.448 770.974 305.625 770.324 305.393 769.534 305.147 768.724 304.973 767.903 304.873 768.313 304.189 768.784 303.543 769.304 302.942 769.644 302.547 770.014 302.173 770.404 301.821 771.115 302.062 771.465 302.142 771.515 302.162Z" fill="#102A4B"/><path d="M827.456 420.107C825.175 418.867 819.913 422.948 818.453 422.368 818.213 419.597 815.752 377.521 815.182 374.93 815.902 374.246 816.402 373.365 816.622 372.399 817.412 371.112 818.023 369.726 818.453 368.277 819.543 372.489 820.453 376.721 821.304 380.762 821.584 382.153 821.844 383.523 822.084 384.854 822.134 385.094 827.406 419.807 827.456 420.107Z" fill="#F37529"/><path d="M824.505 388.975C825.055 394.147 825.656 398.309 826.096 401.15 826.686 404.584 827.056 408.053 827.206 411.534 827.396 416.726 826.916 418.447 825.956 419.817 825.145 420.958 823.885 422.038 820.504 423.259 815.912 424.878 811.05 425.559 806.188 425.259 801.346 425.259 797.255 425.149 794.183 424.979 786.32 424.569 783.559 423.979 781.558 423.379 777.357 422.178 775.266 421.578 773.666 419.877 770.484 416.496 770.954 411.384 771.945 402.14 772.405 397.808 773.155 393.51 774.176 389.275" stroke="#102A4B" stroke-width="3.46134" stroke-miterlimit="10" fill="none"/><path d="M793.833 329.612C793.833 331.778 793.054 333.534 792.092 333.534 791.131 333.534 790.352 331.778 790.352 329.612 790.352 327.446 791.131 325.691 792.092 325.691 793.054 325.691 793.833 327.446 793.833 329.612Z" fill="#102A4B"/><path d="M805.258 329.302C805.258 331.468 804.478 333.224 803.517 333.224 802.556 333.224 801.776 331.468 801.776 329.302 801.776 327.136 802.556 325.381 803.517 325.381 804.478 325.381 805.258 327.136 805.258 329.302Z" fill="#102A4B"/></g></svg>